Coordinates
version=1
nRows=21
nColumns=22
inDegrees=yes

Units are S.I. units (second, meters, Newtons, ...)
If the header above contains a line with 'inDegrees', this indicates whether rotational values are in degrees (yes) or radians (no).

endheader
time	pelvis_tilt	pelvis_list	pelvis_rotation	pelvis_tx	pelvis_ty	pelvis_tz	hip_flexion_r	hip_adduction_r	hip_rotation_r	knee_angle_r	ankle_angle_r	subtalar_angle_r	hip_flexion_l	hip_adduction_l	hip_rotation_l	knee_angle_l	ankle_angle_l	subtalar_angle_l	lumbar_extension	lumbar_bending	lumbar_rotation
      2.95000000	      3.19513138	     -0.39968757	     95.80229744	      0.40707573	      0.93967589	     -0.28570989	     -0.54646749	      6.12112298	    -10.26379110	     -4.28476697	      6.52550202	      0.03020278	     10.17455999	     -4.81380206	     -3.29174726	    -22.35149628	     12.38004337	     -2.48415665	     -5.16192306	      1.87745693	     -1.74359189
      2.96000000	      3.05931655	     -0.39439236	     95.91319326	      0.40616776	      0.93988301	     -0.28618305	     -0.61188718	      5.93884740	    -10.39492217	     -4.27094343	      6.61543407	     -0.10711360	      9.82917854	     -4.59846152	     -3.33871976	    -21.80454283	     12.31775781	     -2.55663378	     -5.18507618	      1.72651483	     -1.76621014
      2.97000000	      2.94490332	     -0.41801117	     96.02961264	      0.40525394	      0.94001338	     -0.28656060	     -0.61276054	      5.77130112	    -10.51185365	     -4.30783191	      6.69968530	     -0.20897598	      9.55102420	     -4.39788237	     -3.33943603	    -21.30508256	     12.24616078	     -2.60784514	     -5.18485045	      1.60260785	     -1.82142607
      2.98000000	      2.84487305	     -0.42814009	     96.14991593	      0.40432731	      0.94013033	     -0.28690851	     -0.62565444	      5.62121824	    -10.65193509	     -4.34264653	      6.79188547	     -0.32464542	      9.28499554	     -4.21409768	     -3.32965491	    -20.84663773	     12.19240418	     -2.66565437	     -5.20253538	      1.49865439	     -1.87021726
      2.99000000	      2.75889661	     -0.43934268	     96.27116958	      0.40338917	      0.94022207	     -0.28721626	     -0.62976098	      5.48461407	    -10.80060728	     -4.38534432	      6.88431496	     -0.44524011	      9.04561480	     -4.04426625	     -3.30558140	    -20.42645661	     12.14873513	     -2.72892111	     -5.22190507	      1.41192053	     -1.91932077
      3.00000000	      2.69413151	     -0.48387100	     96.38262292	      0.40245733	      0.94024016	     -0.28747100	     -0.57840790	      5.36298524	    -10.93954730	     -4.45272181	      6.92602576	     -0.52340643	      8.86704145	     -3.89331147	     -3.26908714	    -20.04595465	     12.15153471	     -2.76416010	     -5.20225108	      1.34560319	     -1.94407754
      3.01000000	      2.61160744	     -0.48087037	     96.51128266	      0.40146762	      0.94032657	     -0.28768711	     -0.57729226	      5.22544167	    -11.09846985	     -4.52756183	      7.08723047	     -0.65804333	      8.64744148	     -3.72423036	     -3.22270085	    -19.67562880	     12.05950736	     -2.85940022	     -5.24834040	      1.27190718	     -2.04676484
      3.02000000	      2.55399071	     -0.52706840	     96.60774854	      0.40051897	      0.94032972	     -0.28786035	     -0.50424662	      5.10426532	    -11.22408522	     -4.62373659	      7.13329022	     -0.72869033	      8.48745770	     -3.57853101	     -3.17916540	    -19.31846550	     12.05657281	     -2.90378621	     -5.23399735	      1.21902558	     -2.08204244
      3.03000000	      2.47459598	     -0.55465910	     96.71174384	      0.39955803	      0.94036750	     -0.28799119	     -0.44130636	      4.95982255	    -11.36378587	     -4.74282211	      7.26420724	     -0.81379908	      8.30678808	     -3.41004991	     -3.13017707	    -18.95511131	     11.97843243	     -2.98140795	     -5.24935625	      1.14194425	     -2.17200477
      3.04000000	      2.40069143	     -0.58304727	     96.79703345	      0.39861304	      0.94040239	     -0.28808224	     -0.36866078	      4.81840298	    -11.47646050	     -4.87079664	      7.36870169	     -0.88932322	      8.12890827	     -3.24975682	     -3.09805955	    -18.59692745	     11.91523049	     -3.06052851	     -5.26563743	      1.07405211	     -2.25406187
      3.05000000	      2.31797712	     -0.60801054	     96.87120858	      0.39768927	      0.94044956	     -0.28813791	     -0.29093029	      4.66541252	    -11.57023839	     -5.01435343	      7.48261666	     -0.95753786	      7.93648216	     -3.08271951	     -3.07275412	    -18.21809124	     11.83206662	     -3.14858187	     -5.29096826	      0.99559367	     -2.35225068
      3.06000000	      2.21850752	     -0.59226547	     96.94098277	      0.39678172	      0.94056397	     -0.28817813	     -0.26121871	      4.50104067	    -11.63450326	     -5.15327256	      7.64607179	     -1.03997561	      7.69160625	     -2.90635664	     -3.06641803	    -17.82645821	     11.70335396	     -3.29161213	     -5.36888913	      0.90162024	     -2.48587259
      3.07000000	      2.11945598	     -0.57955837	     96.99124293	      0.39591244	      0.94068158	     -0.28822918	     -0.21885600	      4.33471314	    -11.65305364	     -5.30989732	      7.75349331	     -1.09096867	      7.42492257	     -2.73204812	     -3.05418060	    -17.39579815	     11.59764860	     -3.39914215	     -5.43657022	      0.80457025	     -2.60248124
      3.08000000	      2.01320009	     -0.53053890	     97.03065975	      0.39507105	      0.94085801	     -0.28831651	     -0.21754757	      4.16572848	    -11.62642110	     -5.46986353	      7.86629622	     -1.13136380	      7.09635569	     -2.55860428	     -3.05160823	    -16.93151384	     11.47805656	     -3.50786107	     -5.53997886	      0.70033102	     -2.73571119
      3.09000000	      1.90509631	     -0.45355323	     97.05574458	      0.39426478	      0.94108162	     -0.28844048	     -0.24851882	      3.99919026	    -11.55335258	     -5.63086558	      7.97159824	     -1.16142715	      6.71792408	     -2.39056789	     -3.05730944	    -16.44014841	     11.35220298	     -3.60936464	     -5.66837566	      0.59363134	     -2.87695573
      3.10000000	      1.80050528	     -0.36161985	     97.05902924	      0.39351335	      0.94132707	     -0.28856907	     -0.29070036	      3.83917967	    -11.44960637	     -5.79754762	      8.06863620	     -1.18198503	      6.30996046	     -2.23271069	     -3.07539615	    -15.92854308	     11.22606471	     -3.70012382	     -5.81199622	      0.48838663	     -3.02183135
      3.11000000	      1.70599456	     -0.26280235	     97.03621453	      0.39282915	      0.94158258	     -0.28868103	     -0.33232439	      3.69145907	    -11.33385325	     -5.97063857	      8.15510644	     -1.19359433	      5.89314737	     -2.09179719	     -3.11030554	    -15.41599433	     11.10451418	     -3.77934086	     -5.96230878	      0.38908647	     -3.16258480
      3.12000000	      1.62385866	     -0.18022186	     96.98682121	      0.39220500	      0.94180614	     -0.28876589	     -0.34172856	      3.55317774	    -11.21704673	     -6.16067169	      8.23210923	     -1.19569954	      5.49787763	     -1.96596692	     -3.15754678	    -14.91098665	     10.99265250	     -3.83620508	     -6.09204522	      0.29907840	     -3.29891928
      3.13000000	      1.55435768	     -0.11118413	     96.91240368	      0.39165968	      0.94200211	     -0.28881023	     -0.32428641	      3.42745829	    -11.10742695	     -6.35933068	      8.30261926	     -1.19038854	      5.12820371	     -1.85695297	     -3.21601514	    -14.42277642	     10.89210769	     -3.86922848	     -6.20819638	      0.21247304	     -3.43028654
      3.14000000	      1.49648619	     -0.04877811	     96.82054914	      0.39116309	      0.94217866	     -0.28883264	     -0.29319636	      3.31318833	    -11.00490811	     -6.56118449	      8.36703215	     -1.17859734	      4.77685769	     -1.76290898	     -3.28451713	    -13.95329456	     10.80461823	     -3.87535637	     -6.31624117	      0.13644751	     -3.56167536
      3.15000000	      1.45328695	      0.00581607	     96.71536902	      0.39072419	      0.94232950	     -0.28883613	     -0.24875600	      3.21562376	    -10.91121979	     -6.76261349	      8.42261464	     -1.16089813	      4.44941714	     -1.68732223	     -3.35842507	    -13.50872323	     10.73697320	     -3.84869374	     -6.41392450	      0.07031021	     -3.69511308
